<?xml version="1.0" encoding="iso-8859-1"?>
<!-- Generator: Adobe Illustrator 19.0.0, SVG Export Plug-In . SVG Version: 6.00 Build 0)  -->
<svg version="1.1" id="Capa_1" xmlns="http://www.w3.org/2000/svg" xmlns:xlink="http://www.w3.org/1999/xlink" x="0px" y="0px"
	 viewBox="0 0 464 464" style="enable-background:new 0 0 464 464;" xml:space="preserve">
<path style="fill:#00F2A9;" d="M264,56l-32,32l-32-32L40,216h88.8c17.6-16,43.2-32,71.2-32s54.4,16,71.2,32H360h64L264,56z"/>
<g>
	<path style="fill:#322153;" d="M368,312c0-13.6-10.4-24-24-24s-24,10.4-24,24s10.4,24,24,24S368,325.6,368,312z M344,320
		c-4.8,0-8-3.2-8-8s3.2-8,8-8s8,3.2,8,8S348.8,320,344,320z"/>
	<path style="fill:#322153;" d="M424,112h-60.8l-93.6-93.6c-3.2-3.2-8-3.2-11.2,0L232,44.8l-26.4-26.4c-3.2-3.2-8-3.2-11.2,0
		L100.8,112H40c-22.4,0-40,17.6-40,40v256c0,22.4,17.6,40,40,40h384c22.4,0,40-17.6,40-40V152C464,129.6,446.4,112,424,112z
		 M424,128c13.6,0,24,10.4,24,24c0,12-8.8,22.4-20.8,24l-48-48H424z M264,35.2l90.4,90.4l0,0l50.4,50.4h-41.6l-120-120L264,35.2z
		 M200,35.2l26.4,26.4L340.8,176h-66.4C260,163.2,232,144,200,144c-32.8,0-60,19.2-74.4,32H59.2l50.4-50.4l0,0L200,35.2z M248,176
		h-96c12.8-8,29.6-16,48-16S235.2,168,248,176z M40,128h44.8l-48,48c-12-1.6-20.8-12-20.8-24C16,138.4,26.4,128,40,128z M424,432H40
		c-13.6,0-24-10.4-24-24V184c6.4,4.8,15.2,8,24,8h88.8H272h88h64c8.8,0,17.6-3.2,24-8v152H344h-12.8l-24-24l24-24H344h80
		c4.8,0,8-3.2,8-8s-3.2-8-8-8h-96c-2.4,0-4,0.8-5.6,2.4l-32,32c-3.2,3.2-3.2,8,0,11.2l32,32c1.6,1.6,3.2,2.4,5.6,2.4h120v56
		C448,421.6,437.6,432,424,432z"/>
	<path style="fill:#322153;" d="M194.4,274.4l-64,64c-3.2,3.2-3.2,8,0,11.2c1.6,1.6,4,2.4,5.6,2.4s4-0.8,5.6-2.4l64-64
		c3.2-3.2,3.2-8,0-11.2S197.6,271.2,194.4,274.4z"/>
	<path style="fill:#322153;" d="M136,320c2.4,0,4-0.8,5.6-2.4l32-32c3.2-3.2,3.2-8,0-11.2s-8-3.2-11.2,0l-32,32
		c-3.2,3.2-3.2,8,0,11.2C132,319.2,133.6,320,136,320z"/>
	<path style="fill:#322153;" d="M194.4,306.4l-32,32c-3.2,3.2-3.2,8,0,11.2c1.6,1.6,4,2.4,5.6,2.4s4-0.8,5.6-2.4l32-32
		c3.2-3.2,3.2-8,0-11.2S197.6,303.2,194.4,306.4z"/>
	<path style="fill:#322153;" d="M72,400c-7.2,0-13.6-2.4-17.6-6.4C48,387.2,48,376,48,376c0-4-3.2-8-8-8c-4,0-8,3.2-8,8
		c0,0.8,0,17.6,11.2,29.6C50.4,412,60,416,72,416c4.8,0,8-3.2,8-8S76.8,400,72,400z"/>
</g>
<g>
</g>
<g>
</g>
<g>
</g>
<g>
</g>
<g>
</g>
<g>
</g>
<g>
</g>
<g>
</g>
<g>
</g>
<g>
</g>
<g>
</g>
<g>
</g>
<g>
</g>
<g>
</g>
<g>
</g>
</svg>
