<?xml version="1.0" encoding="iso-8859-1"?>
<!-- Generator: Adobe Illustrator 19.0.0, SVG Export Plug-In . SVG Version: 6.00 Build 0)  -->
<svg version="1.1" id="Capa_1" xmlns="http://www.w3.org/2000/svg" xmlns:xlink="http://www.w3.org/1999/xlink" x="0px" y="0px"
	 viewBox="0 0 448 448" style="enable-background:new 0 0 448 448;" xml:space="preserve">
<path style="fill:#9F2BFB;" d="M416,112h-16h-48H96H48.8H32c-8.8,0-16.8,4-22.4,9.6C4,127.2,0,135.2,0,144v256c0,17.6,14.4,32,32,32
	h384c17.6,0,32-14.4,32-32v-64v-64V144C448,126.4,433.6,112,416,112z"/>
<g>
	<path style="fill:#7720BC;" d="M448,144c0,8.8-4,16.8-9.6,22.4c-5.6,5.6-13.6,9.6-22.4,9.6H32c-17.6,0-32-14.4-32-32
		c0-8.8,4-16.8,9.6-22.4C15.2,116,23.2,112,32,112h384C433.6,112,448,126.4,448,144z"/>
	<polygon style="fill:#7720BC;" points="448,272 320,272 288,304 320,336 448,336 	"/>
</g>
<circle style="fill:#F3E4FF;" cx="336" cy="304" r="16"/>
<polygon style="fill:#E7C9FF;" points="96,176 224,48 256,16 416,176 "/>
<g>
	<path style="fill:#F3E4FF;" d="M184.8,176c17.6-16,43.2-32,71.2-32c28.8,0,53.6,16,71.2,32H184.8z"/>
	<polygon style="fill:#F3E4FF;" points="32,176 160,48 192,16 352,176 	"/>
</g>
<path style="fill:#E7C9FF;" d="M120.8,176c17.6-16,43.2-32,71.2-32c28.8,0,53.6,16,71.2,32H120.8z"/>
<g>
</g>
<g>
</g>
<g>
</g>
<g>
</g>
<g>
</g>
<g>
</g>
<g>
</g>
<g>
</g>
<g>
</g>
<g>
</g>
<g>
</g>
<g>
</g>
<g>
</g>
<g>
</g>
<g>
</g>
</svg>
