<svg id="Capa_1"
     enable-background="new 0 0 512 512"
     height="512"
     viewBox="0 0 512 512"
     width="512"
     xmlns="http://www.w3.org/2000/svg">
  <defs>
    <style>
      path {
        fill: #fff;
      }
    </style>
  </defs>
  <g>
    <path d="m502 202.021h-6.298v-94.411c0-25.087-20.409-45.497-45.496-45.497h-404.71c-25.087 0-45.496 20.41-45.496 45.497v296.78c0 25.087 20.409 45.497 45.496 45.497h404.71c25.087 0 45.496-20.41 45.496-45.497v-94.412h6.298c5.522 0 10-4.477 10-10v-87.957c0-5.522-4.478-10-10-10zm-96.298 0h-17.681c-29.764 0-53.979 24.215-53.979 53.979s24.215 53.979 53.979 53.979h17.681v49.908h-315.702v-207.774h315.702zm-17.681 87.958c-18.735 0-33.979-15.243-33.979-33.979s15.243-33.979 33.979-33.979h103.979v67.957h-103.979zm87.681 114.411c0 14.059-11.438 25.497-25.496 25.497h-404.71c-14.058 0-25.496-11.438-25.496-25.497v-296.78c0-14.059 11.438-25.497 25.496-25.497h404.71c14.059 0 25.496 11.438 25.496 25.497v94.412h-50v-59.908c0-5.523-4.478-10-10-10h-335.702c-5.522 0-10 4.477-10 10v227.773c0 5.523 4.478 10 10 10h335.702c5.522 0 10-4.477 10-10v-59.908h50z" />
    <path d="m434.085 246h-22.128c-5.522 0-10 4.477-10 10s4.478 10 10 10h22.128c5.522 0 10-4.477 10-10s-4.478-10-10-10z" />
  </g>
</svg>