<svg id="Capa_1" enable-background="new 0 0 512 512" height="512" viewBox="0 0 512 512" width="512" xmlns="http://www.w3.org/2000/svg"><g><g><path d="m80 369.887v-227.774h335.702v59.908h-27.681c-29.764 0-53.979 24.215-53.979 53.979s24.215 53.978 53.979 53.978h27.681v59.908h-335.702z" fill="#e2c4ff"/></g><g fill="#020288"><path d="m502 202.021h-6.298v-94.411c0-25.087-20.409-45.497-45.496-45.497h-404.71c-25.087 0-45.496 20.41-45.496 45.497v296.78c0 25.087 20.409 45.497 45.496 45.497h404.71c25.087 0 45.496-20.41 45.496-45.497v-94.412h6.298c5.522 0 10-4.477 10-10v-87.957c0-5.522-4.478-10-10-10zm-10 20v67.957h-103.978c-18.735 0-33.979-15.243-33.979-33.978s15.243-33.979 33.979-33.979zm-16.298 182.369c0 14.059-11.438 25.497-25.496 25.497h-404.71c-14.058 0-25.496-11.438-25.496-25.497v-296.78c0-14.059 11.438-25.497 25.496-25.497h404.71c14.059 0 25.496 11.438 25.496 25.497v94.412h-87.681c-29.764 0-53.979 24.215-53.979 53.979s24.215 53.978 53.979 53.978h87.681z"/><path d="m411.957 266h22.128c5.522 0 10-4.477 10-10s-4.478-10-10-10h-22.128c-5.522 0-10 4.477-10 10s4.478 10 10 10z"/></g></g></svg>